<?xml version="1.0" standalone="no"?>
<!DOCTYPE svg PUBLIC "-//W3C//DTD SVG 20010904//EN"
 "http://www.w3.org/TR/2001/REC-SVG-20010904/DTD/svg10.dtd">
<svg version="1.0" xmlns="http://www.w3.org/2000/svg"
 width="260.000000pt" height="260.000000pt" viewBox="0 0 260.000000 260.000000"
 preserveAspectRatio="xMidYMid meet">
<metadata>
Created by potrace 1.14, written by Peter Selinger 2001-2017
</metadata>
<g transform="translate(0.000000,260.000000) scale(0.100000,-0.100000)"
fill="#000000" stroke="none">
<path d="M919 2328 l-36 -9 33 -142 c18 -78 36 -152 39 -163 4 -19 9 -21 41
-14 19 5 38 11 41 14 3 3 -1 34 -9 69 -16 73 -9 107 22 107 25 0 47 -46 57
-115 l6 -45 41 6 c22 4 43 8 44 10 2 1 -4 39 -14 84 -27 125 -78 166 -158 125
-15 -8 -30 -15 -31 -15 -2 0 -8 23 -15 50 -7 28 -15 50 -18 49 -4 -1 -23 -5
-43 -11z"/>
<path d="M1219 2243 c10 -26 31 -78 46 -116 31 -77 28 -97 -15 -97 -28 0 -30
-3 -30 -35 0 -36 4 -39 55 -36 56 2 70 19 133 154 33 73 62 139 64 147 2 12
-7 15 -41 15 -44 0 -44 0 -64 -52 -19 -51 -37 -69 -37 -39 0 8 -8 34 -19 58
-18 42 -21 44 -65 47 l-46 2 19 -48z"/>
<path d="M1780 2242 c0 -5 -31 -67 -69 -138 l-70 -129 32 -17 c45 -24 51 -23
73 17 22 40 28 42 69 15 41 -27 49 -25 68 14 16 34 16 34 -11 45 -54 23 -65
37 -51 63 6 13 13 24 14 26 1 1 23 -9 48 -24 51 -28 60 -26 81 15 l14 27 -87
47 c-87 46 -111 55 -111 39z"/>
<path d="M722 2208 c-19 -9 -22 -17 -17 -40 5 -22 2 -32 -16 -47 -22 -18 -22
-19 -6 -45 14 -21 21 -24 36 -17 15 9 21 3 39 -33 28 -56 55 -79 91 -78 23 0
82 23 99 37 2 2 -5 16 -15 32 -14 24 -22 28 -38 22 -31 -12 -34 -11 -55 24
-25 41 -25 45 4 58 24 11 24 12 9 44 -15 31 -17 32 -42 19 -24 -13 -27 -12
-39 11 -14 28 -17 28 -50 13z"/>
<path d="M1505 2156 c-15 -44 -11 -49 59 -68 72 -21 85 -17 86 22 0 20 -139
64 -145 46z"/>
<path d="M526 2125 c-22 -17 -27 -27 -19 -37 5 -7 49 -66 97 -130 48 -65 93
-118 100 -118 22 0 60 48 49 62 -5 7 -49 66 -97 131 -47 64 -90 117 -94 117
-4 -1 -20 -11 -36 -25z"/>
<path d="M1927 1990 c-59 -46 -72 -114 -34 -170 36 -54 72 -75 129 -75 45 0
53 4 84 37 56 62 44 140 -30 199 -42 33 -113 37 -149 9z m115 -77 c26 -23 23
-59 -7 -79 -51 -33 -104 21 -71 71 19 29 51 32 78 8z"/>
<path d="M441 1922 c-38 -25 -71 -76 -71 -110 0 -10 7 -27 15 -38 15 -18 16
-18 40 11 14 17 23 35 21 42 -6 15 30 47 43 38 16 -9 14 -17 -19 -54 -52 -59
-52 -108 1 -134 17 -8 40 -12 50 -10 28 8 70 54 76 85 4 18 12 28 24 28 10 0
25 10 33 22 14 20 13 23 -12 45 -117 104 -142 114 -201 75z m115 -133 c-1 -27
-31 -48 -46 -33 -7 7 -4 19 11 37 23 30 37 29 35 -4z"/>
<path d="M945 1829 c-24 -72 -44 -211 -39 -278 13 -180 105 -340 256 -442 l58
-40 1 53 c1 60 2 77 13 130 6 32 1 51 -33 120 -42 88 -64 164 -35 122 8 -12
34 -47 58 -77 l44 -56 40 62 c23 34 56 80 76 102 l34 39 -19 26 c-43 54 -117
124 -170 161 -66 44 -202 115 -240 124 -25 6 -28 3 -44 -46z"/>
<path d="M2122 1761 c-64 -41 -77 -115 -32 -188 52 -85 163 -89 216 -8 34 52
17 131 -39 184 -36 33 -102 38 -145 12z m120 -97 c14 -30 -13 -74 -44 -74 -29
0 -58 28 -58 56 0 51 81 65 102 18z"/>
<path d="M305 1695 c-47 -22 -64 -39 -78 -81 -26 -74 -2 -134 65 -164 115 -51
225 82 163 199 l-13 25 -17 -33 c-9 -19 -18 -47 -21 -63 -4 -35 -20 -58 -40
-58 -20 0 -18 10 22 90 30 58 34 74 23 81 -8 5 -18 9 -24 10 -5 0 -19 2 -30 4
-11 2 -33 -2 -50 -10z m35 -70 c0 -12 -35 -75 -42 -75 -15 0 -12 47 4 68 10
11 38 17 38 7z"/>
<path d="M1716 1635 c-103 -42 -218 -118 -291 -190 -120 -121 -171 -249 -162
-408 2 -48 7 -91 11 -94 20 -20 153 112 270 270 32 42 59 77 61 77 8 0 -26
-93 -54 -148 -75 -148 -194 -293 -306 -372 -50 -35 -95 -91 -95 -117 0 -8 11
-2 25 16 36 42 80 67 207 117 245 96 362 201 434 389 44 115 42 270 -7 443 -6
23 -17 42 -23 42 -6 0 -37 -11 -70 -25z"/>
<path d="M2256 1495 c-22 -8 -43 -20 -48 -27 -40 -59 -43 -113 -9 -159 11 -15
18 -35 15 -45 -3 -11 -1 -28 3 -40 8 -19 11 -19 169 19 l162 39 -10 37 c-14
51 -13 51 -68 36 -49 -13 -50 -13 -44 9 8 32 -17 96 -46 118 -33 24 -77 29
-124 13z m90 -100 c20 -30 10 -63 -23 -76 -51 -19 -94 41 -58 81 25 27 61 25
81 -5z"/>
<path d="M76 1428 c-2 -7 -7 -27 -10 -44 -5 -33 8 -43 59 -44 38 -1 48 -15 40
-59 l-7 -41 -56 2 -56 3 -7 -38 c-3 -21 -3 -40 2 -42 10 -7 299 -48 304 -44 2
2 6 23 9 45 l7 42 -56 7 c-54 6 -55 7 -55 40 0 57 7 65 53 59 23 -3 47 -7 54
-9 16 -5 20 2 27 51 6 35 4 40 -14 41 -23 2 -223 32 -263 39 -17 4 -28 1 -31
-8z"/>
<path d="M588 1071 c-27 -8 -48 -35 -48 -63 0 -34 31 -68 63 -68 20 0 24 -8
39 -77 48 -229 169 -395 379 -516 l45 -27 1 98 c0 148 40 259 128 357 42 47
50 71 41 132 -8 59 -36 103 -87 139 l-41 28 -254 1 c-139 0 -259 -2 -266 -4z"/>
<path d="M1789 1028 c-90 -140 -188 -220 -334 -272 -275 -99 -342 -171 -333
-356 2 -49 9 -95 14 -100 18 -18 147 -40 239 -40 282 0 526 143 663 391 37 68
70 161 80 231 6 46 10 53 32 56 14 2 33 11 43 19 21 20 23 86 2 103 -10 9 -68
13 -195 14 l-180 1 -31 -47z"/>
</g>
</svg>
